<?xml version="1.0" encoding="UTF-8" standalone="no"?>
<!-- Created with Inkscape (http://www.inkscape.org/) -->

<svg
   version="1.1"
   id="svg1"
   width="1280"
   height="1024"
   viewBox="0 0 1280 1024"
   sodipodi:docname="Print.svg"
   inkscape:export-filename="Print.eps.png"
   inkscape:export-xdpi="22.5"
   inkscape:export-ydpi="22.5"
   inkscape:version="1.4.2 (ebf0e94, 2025-05-08)"
   xmlns:inkscape="http://www.inkscape.org/namespaces/inkscape"
   xmlns:sodipodi="http://sodipodi.sourceforge.net/DTD/sodipodi-0.dtd"
   xmlns="http://www.w3.org/2000/svg"
   xmlns:svg="http://www.w3.org/2000/svg">
  <defs
     id="defs1" />
  <sodipodi:namedview
     id="namedview1"
     pagecolor="#505050"
     bordercolor="#eeeeee"
     borderopacity="1"
     inkscape:showpageshadow="0"
     inkscape:pageopacity="0"
     inkscape:pagecheckerboard="0"
     inkscape:deskcolor="#505050"
     inkscape:zoom="0.61028001"
     inkscape:cx="469.45664"
     inkscape:cy="445.69705"
     inkscape:window-width="1920"
     inkscape:window-height="1048"
     inkscape:window-x="0"
     inkscape:window-y="0"
     inkscape:window-maximized="1"
     inkscape:current-layer="g1">
    <inkscape:page
       x="0"
       y="0"
       inkscape:label="1"
       id="page1"
       width="1280"
       height="1024"
       margin="0"
       bleed="0" />
  </sodipodi:namedview>
  <g
     id="g1"
     inkscape:groupmode="layer"
     inkscape:label="1">
    <path
       id="path2"
       d="m 492.46022,225.9566 -20.47314,10.89501 c 34.02836,-42.79979 82.02851,-74.00201 137.04016,-86.61988 l 12.17656,5.97001 c -50.19081,9.1792 -94.91469,34.23666 -128.74358,69.75486 z m 346.626,4.02649 0.0212,0.0212 19.45814,10.34955 C 823.87523,195.058 773.75857,162.18764 716.13438,149.62449 l -12.36368,6.07416 c 53.23936,9.07506 100.48046,35.95422 135.31552,74.28444 z m 47.44058,56.61978 -12.2048,-6.00708 c 16.85971,32.5332 26.37431,69.45123 26.37431,108.55463 0,130.56528 -106.21746,236.79687 -236.79511,236.79687 -130.56529,0 -236.78981,-106.23159 -236.78981,-236.79687 0,-40.13782 10.03356,-77.95965 27.71941,-111.09833 l -12.37602,6.0671 c -15.16334,31.843 -23.6594,67.45829 -23.6594,105.03123 0,135.15135 109.95446,245.11287 245.10582,245.11287 135.1496,0 245.12524,-109.96152 245.12524,-245.11287 0,-36.59324 -8.06004,-71.33298 -22.49964,-102.54755 z"
       style="fill:#decd87;fill-opacity:1;fill-rule:nonzero;stroke:none;stroke-width:0.176523" />
    <path
       id="path3"
       d="m 851.26279,397.00569 c 0.0688,-12.42722 -1.76523,-24.16953 -5.15095,-33.08572 -2.81201,-7.40514 -6.59136,-12.36897 -10.91441,-14.52785 2.24714,-4.00707 2.88968,-9.83939 1.7917,-17.08743 -1.41924,-9.42633 -5.59755,-20.56141 -11.75644,-31.34696 -6.15006,-10.79086 -13.61168,-20.05127 -20.99565,-26.0707 -6.13771,-4.99913 -11.88176,-7.41926 -16.70084,-7.12977 -0.15887,-11.68053 -15.62583,-26.89329 -32.86331,-36.96746 -10.72378,-6.26127 -21.81824,-10.55608 -31.2234,-12.07241 -7.80584,-1.2692 -13.99827,-0.48367 -18.02477,2.17123 -5.97883,-10.03357 -26.97449,-15.47401 -46.94454,-15.57639 -0.21359,0 -0.42012,0 -0.63373,0 -12.18361,0 -23.68585,1.81996 -32.45023,5.15094 -7.24627,2.75729 -12.15538,6.4325 -14.39016,10.63904 l -32.04952,-26.4714 c -1.26921,-1.04148 -2.00707,-2.52427 -2.08298,-4.15711 -0.0759,-1.64167 0.51721,-3.17919 1.6752,-4.33894 2.24184,-2.24007 5.88882,-2.24007 8.13066,0 l 3.40513,3.4069 c 2.66902,2.66902 2.95146,6.93735 0.66196,9.93648 l 6.4272,4.91617 c 4.74318,-6.20479 4.15713,-15.05213 -1.36452,-20.57553 l -3.4069,-3.4069 c -5.39983,-5.39807 -14.17657,-5.39807 -19.5764,0 -2.75199,2.752 -4.22067,6.55784 -4.03356,10.44664 0.18535,3.88351 2.00707,7.53753 5.00619,10.01239 l 22.37607,18.4802 c -10.2401,1.06796 -22.70793,5.69463 -33.74062,11.99121 -10.79085,6.15006 -20.05125,13.61169 -26.07069,20.99565 -5.00619,6.14477 -7.42632,11.8959 -7.12976,16.72203 -4.59313,0.0547 -9.96474,2.42013 -15.69467,6.99208 -7.44751,5.94354 -15.00446,15.12804 -21.2728,25.8518 -6.26128,10.72908 -10.55608,21.81649 -12.07418,31.22164 -1.26743,7.81292 -0.4819,13.99828 2.173,18.03184 -10.03357,5.97884 -15.47401,26.97449 -15.57639,46.93748 -0.11122,20.58965 5.4475,42.33023 16.03888,47.62592 -5.68227,10.19951 0.10238,31.09101 9.99121,48.42029 6.15006,10.79085 13.61169,20.05125 21.00271,26.07774 5.80585,4.73083 11.27453,7.16508 15.92945,7.16508 0.26125,0 0.51015,-0.0353 0.76434,-0.0477 0.15181,11.68053 15.61876,26.89858 32.8633,36.97275 12.69554,7.41221 27.34166,12.62493 38.27726,12.62493 4.38484,0 8.15007,-0.86143 10.97092,-2.73081 5.97883,10.04063 26.97449,15.48108 46.95161,15.58346 0.20653,0 0.42012,0 0.62665,0 12.19069,0 23.69293,-1.81995 32.45023,-5.15095 7.41927,-2.81907 12.39016,-6.59842 14.54197,-10.92854 2.72375,1.52339 6.2754,2.33011 10.56314,2.33011 2.02119,0 4.19243,-0.17123 6.51017,-0.52251 9.42633,-1.42101 20.56142,-5.59931 31.34698,-11.7582 17.89944,-10.20481 33.95244,-25.90476 33.22163,-37.71769 4.58607,-0.0688 9.95768,-2.42719 15.67349,-6.99208 7.45457,-5.94352 15.00446,-15.12802 21.27279,-25.85004 6.26834,-10.72907 10.55608,-21.81825 12.07418,-31.23046 1.26744,-7.80584 0.48191,-13.98945 -2.173,-18.02477 10.03357,-5.97707 15.47402,-26.97449 15.5764,-46.93572 z m -8.08829,-0.0424 c -0.13062,24.78207 -8.01238,40.56676 -13.3981,40.56676 h -0.0124 c -5.38573,-0.0282 -13.12273,-15.9012 -12.9921,-40.70445 0.0618,-11.45282 1.81465,-22.14835 4.93735,-30.11307 0.35834,-0.91616 0.7308,-1.7723 1.11739,-2.5843 l 6.04062,-7.56578 c 0.44836,-0.19241 0.88262,-0.30892 1.30274,-0.30892 h 0.0141 c 2.65491,0.0124 5.93647,4.15007 8.36366,10.54196 3.0415,8.00532 4.68316,18.71498 4.62667,30.1678 z m -66.23675,105.97566 c -0.66196,4.07592 -0.76611,7.70876 -0.33715,10.82617 l -67.85195,-8.1642 c 3.44044,-1.27626 6.93736,-2.89674 10.26658,-4.79966 6.77849,-3.86762 12.61257,-8.5702 16.41842,-13.24629 2.34422,-2.8738 3.62755,-5.37689 4.24714,-7.5093 l 60.33559,-23.93299 c -4.00531,4.72376 -7.77055,10.06711 -11.00445,15.59757 -6.26127,10.72908 -10.55785,21.81649 -12.07418,31.2287 z m -276.96294,-63.99667 39.94541,-47.33643 c -0.18535,2.0406 -0.29656,4.13771 -0.30186,6.26833 -0.0424,7.80586 1.11563,15.211 3.25332,20.84385 1.33805,3.51105 2.88263,5.88881 4.43426,7.48811 -0.43424,2.53134 -0.97263,6.07593 -1.74404,11.12272 -1.2286,8.00002 -2.88263,19.12098 -4.93029,33.05748 -0.98677,6.74317 -1.97176,13.48636 -2.87557,19.69291 -2.0353,-5.57813 -4.70963,-11.35044 -7.95059,-17.03801 -8.42721,-14.76968 -20.59672,-28.29312 -31.2287,-32.15368 0.48191,-0.60724 0.95147,-1.25507 1.39806,-1.94528 z m 41.29758,-158.66953 c 1.37864,0.20653 2.8332,0.33716 4.40602,0.33716 0.46249,0 0.96557,-0.0406 1.44748,-0.0618 l 59.23938,10.11478 c -2.47485,1.05561 -4.94441,2.27538 -7.32924,3.63461 -9.8747,5.63991 -18.52256,13.63288 -20.65849,20.78206 l -59.8325,23.30105 c 3.8129,-4.57195 7.39808,-9.69642 10.49429,-14.99211 6.26834,-10.72907 10.55785,-21.81649 12.07419,-31.2287 0.73786,-4.5437 0.78023,-8.54372 0.15887,-11.88706 z m 74.41507,-43.17225 c 1.9594,1.54458 4.32304,2.93028 7.01326,4.15006 l 45.48293,37.55881 c -3.02737,-0.41306 -6.21361,-0.6549 -9.48282,-0.67432 -11.81116,-0.0424 -23.77413,2.77847 -28.90565,8.32307 l -62.11317,-10.61257 c 5.20566,-1.97176 10.57019,-4.50311 15.85176,-7.51635 14.77146,-8.42545 28.29312,-20.58965 32.15369,-31.2287 z m 200.27072,122.66235 -38.35141,48.00545 c 0.52428,-3.33629 0.81377,-6.88792 0.83319,-10.54196 0.0424,-7.80584 -1.11562,-15.20569 -3.26038,-20.84561 -1.34511,-3.54457 -2.91087,-5.9294 -4.48192,-7.53753 l 10.19774,-62.22438 c 1.95234,5.07504 4.42014,10.29482 7.35042,15.4387 6.15712,10.79262 13.61169,20.05303 21.00448,26.07247 3.564,2.9091 6.99738,4.93735 10.19773,6.07415 -1.24801,1.56577 -2.41307,3.42103 -3.48985,5.55871 z M 757.8309,464.14624 c 1.68226,-2.22066 3.28862,-4.62667 4.77142,-7.17213 5.43337,-9.301 8.84732,-19.88002 7.737,-27.14042 l 39.6206,-49.59769 c -0.79965,5.23214 -1.24801,10.80498 -1.28333,16.54904 -0.083,16.70615 3.56577,34.15898 10.59845,42.98513 z m -66.33385,35.52527 c -0.13239,-0.22771 -0.15887,-2.18006 2.88086,-5.91 3.1527,-3.86055 8.316,-7.99119 14.15715,-11.32924 13.30807,-7.5852 22.68498,-7.35748 23.51288,-5.89587 0.13062,0.22771 0.15887,2.17299 -2.88263,5.90293 -3.15094,3.86762 -8.316,7.99826 -14.15538,11.32924 -13.30808,7.59227 -22.68675,7.3575 -23.51288,5.90294 z m -57.99842,-6.04768 c -0.6955,-1.33098 -1.62048,-2.77142 -2.86144,-4.32305 -3.76524,-4.71669 -9.54284,-9.48105 -16.28072,-13.41928 -5.88175,-3.43337 -12.28071,-6.06004 -18.02477,-7.25334 l 33.62235,-33.35403 c 7.20567,5.56578 16.03888,9.10859 25.66468,9.79879 v 42.74507 c -8.63197,0.42012 -16.91444,2.37247 -22.1201,5.80584 z M 744.1433,466.93177 c -3.76524,3.0062 -5.71053,2.95854 -5.93648,2.82614 -1.44926,-0.84731 -1.58693,-10.22598 6.13595,-23.45108 7.12976,-12.20482 14.69378,-16.96917 16.9621,-16.96917 0.18711,0 0.33892,0.0335 0.45543,0.10415 1.44925,0.84731 1.57988,10.21892 -6.143,23.45109 -3.39984,5.8129 -7.57815,10.92854 -11.474,14.03887 z m 16.06536,-87.71784 c 1.75817,-4.47485 3.46868,-5.4122 3.73169,-5.4122 0.26126,0 1.96471,0.95147 3.67522,5.45457 1.77228,4.6602 2.76435,11.19156 2.73081,17.92062 -0.0353,6.73788 -1.09797,13.26042 -2.91793,17.90121 -1.7511,4.47485 -3.46161,5.41219 -3.72993,5.41219 -0.26301,0 -1.9647,-0.95146 -3.67521,-5.45456 -1.76523,-4.66021 -2.76612,-11.1898 -2.73081,-17.92062 0.0353,-6.73613 1.10327,-13.26042 2.91616,-17.90121 z m 0.9391,-14.1342 v 0.007 c -0.22771,0.12357 -2.18006,0.15004 -5.90999,-2.88969 -3.86233,-3.15093 -7.9912,-8.30893 -11.32925,-14.15715 -3.33805,-5.84644 -5.67522,-12.03181 -6.42014,-16.9621 -0.12357,-0.79259 -0.17829,-1.46866 -0.2136,-2.09709 l 2.02119,-1.99824 -1.69639,-1.71051 c 0.16593,-0.4625 0.3301,-0.70433 0.41307,-0.74493 0.10414,-0.0618 0.25595,-0.0971 0.43424,-0.0971 2.2489,0 9.77761,4.83497 16.79794,17.14217 3.33628,5.8482 5.68228,12.02651 6.42544,16.9568 0.71844,4.7573 -0.29656,6.42543 -0.52251,6.55077 z m -29.9136,-46.70977 c -0.84731,1.44749 -10.22598,1.58518 -23.45109,-6.13771 -13.22511,-7.72994 -17.71409,-15.97004 -16.86678,-17.41753 0.26303,-0.44837 1.35217,-0.77317 3.1174,-0.77317 3.93117,0 11.21981,1.59401 20.33545,6.91618 13.22512,7.72994 17.70704,15.96297 16.86502,17.41223 z m -27.5323,0.84731 c 8.00532,4.6761 16.95504,7.84645 23.92594,7.92942 l -35.71062,35.40876 5.69463,5.74406 32.63029,-32.34608 c 1.25509,5.08032 3.53752,10.66022 6.6408,16.0936 3.86762,6.77849 8.57019,12.61081 13.24453,16.42371 1.75287,1.42807 3.36629,2.45543 4.84908,3.18624 -0.80141,1.26214 -1.57987,2.77141 -2.29656,4.60726 -1.84113,4.6955 -2.99913,10.63904 -3.35217,17.02387 l -42.86157,-0.22065 c -1.00618,-10.80497 -5.6205,-20.86502 -13.29396,-28.75384 -7.92941,-8.15007 -18.24542,-13.09448 -29.45816,-14.17656 v -42.93219 c 8.18537,-0.54369 15.92238,-2.47485 20.86679,-5.74935 3.30274,6.28068 10.75555,12.87383 19.12098,17.76175 z m -21.73528,-26.34078 c -0.007,1.66285 -7.92237,6.40603 -23.00273,6.40603 -0.12357,0 -0.24889,0 -0.37246,0 -6.73613,-0.0335 -13.26042,-1.0962 -17.90121,-2.91616 -4.48192,-1.75817 -5.4122,-3.46868 -5.4122,-3.72993 0.007,-1.66285 7.92942,-6.40602 23.00273,-6.40602 0.12357,0 0.25595,0 0.37246,0 6.73789,0.0335 13.26042,1.0962 17.90121,2.91616 4.48191,1.75817 5.41926,3.46867 5.4122,3.72992 z m -44.22786,11.01858 c 4.91086,1.9241 11.17214,3.11033 17.88001,3.40689 v 42.72388 c -9.68757,0.68315 -18.83147,4.25421 -26.39549,10.34426 l -33.36638,-33.66472 c 5.48104,-1.14387 11.6664,-3.58518 17.66642,-7.0115 6.77849,-3.86938 12.61081,-8.57196 16.42371,-13.24629 1.42806,-1.7511 2.44837,-3.3663 3.17918,-4.84732 1.2692,0.80671 2.77847,1.57812 4.61255,2.2948 z m -48.94279,160.81604 c -0.0547,-0.60723 -0.13063,-1.23389 -0.22771,-1.90291 -0.9038,-5.95766 -3.53047,-12.97798 -7.39808,-19.75646 -4.93735,-8.66022 -11.69466,-16.36899 -18.10774,-19.58171 0.8067,-1.26919 1.58517,-2.78553 2.31598,-4.63373 1.96647,-5.02738 3.158,-11.48812 3.41395,-18.38311 l 42.69564,0.22065 c 0.7308,11.17744 5.33805,21.33458 12.50136,29.11925 z m 22.84385,-72.13262 -42.98514,-0.22065 c -0.58605,-7.9859 -2.51015,-15.4952 -5.71051,-20.34252 1.33804,-0.68844 2.78023,-1.61342 4.33716,-2.85438 4.70964,-3.76523 9.47577,-9.5499 13.41223,-16.28601 3.93823,-6.73789 6.63374,-13.72291 7.59932,-19.68057 0.13063,-0.82788 0.22066,-1.59223 0.28244,-2.33716 l 34.79446,35.09808 c -6.63374,7.46693 -10.70966,16.70791 -11.72996,26.62321 z m 14.92149,-97.14947 c 0.12534,0.22595 0.15181,2.17829 -2.88792,5.90823 -3.15093,3.86233 -8.30893,7.99297 -14.15714,11.32925 -5.84645,3.33805 -12.03182,5.67522 -16.96211,6.42014 -4.75906,0.71669 -6.42013,-0.2895 -6.55076,-0.52427 -0.83496,-1.45455 3.73699,-9.64699 17.04507,-17.23218 9.0468,-5.1633 16.28072,-6.70788 20.24542,-6.70788 1.86232,0 2.99913,0.34422 3.26744,0.80671 z m -47.17049,29.81475 c 0.19241,0 0.34422,0.0353 0.46073,0.0971 0.22771,0.13768 1.22153,1.81289 0.44836,6.56489 -0.79258,4.91617 -3.19859,11.07329 -6.59843,16.8862 -3.39277,5.8129 -7.57107,10.92854 -11.474,14.04594 -3.75817,2.99913 -5.7017,2.95146 -5.93647,2.82084 -0.22771,-0.13063 -1.22154,-1.8076 -0.45543,-6.55784 0.79965,-4.92323 3.20566,-11.08035 6.59843,-16.89326 7.12977,-12.1995 14.69555,-16.96386 16.95681,-16.96386 z m -28.76796,54.77688 c 0.39364,-0.99207 0.77846,-1.79172 1.14386,-2.46074 l 2.4625,-2.91616 c 0.0477,-0.0212 0.0971,-0.0353 0.12357,-0.0353 1.6752,0.007 6.48193,8.06004 6.40602,23.37518 -0.0335,6.73788 -1.09621,13.26041 -2.91616,17.90121 -1.75817,4.47486 -3.46162,5.41219 -3.7317,5.41219 -0.26125,0 -1.9647,-0.95145 -3.67521,-5.45456 -1.76523,-4.66021 -2.76436,-11.1898 -2.72904,-17.92063 0.0335,-6.73611 1.0962,-13.2604 2.91616,-17.90119 z m 6.28069,50.00015 c 1.46337,-0.83496 9.64698,3.73699 17.23923,17.03801 3.33806,5.8535 5.67523,12.03181 6.42015,16.9621 0.72375,4.75906 -0.2895,6.42015 -0.51721,6.55078 -1.46162,0.83495 -9.64698,-3.737 -17.23924,-17.04507 -7.59226,-13.30102 -7.35748,-22.67969 -5.90293,-23.50582 z m 29.92066,46.70978 c 0.84025,-1.44926 10.21891,-1.58695 23.45109,6.13594 5.80584,3.39983 10.92854,7.57813 14.03888,11.48106 2.99913,3.75817 2.95852,5.70345 2.82084,5.93647 -0.1324,0.22771 -1.8076,1.22154 -6.55784,0.44836 -4.92323,-0.79258 -11.08212,-3.1986 -16.88796,-6.59136 -13.22511,-7.72996 -17.71409,-15.96299 -16.86501,-17.41047 z m 71.70543,-42.32494 c -0.18711,0 -0.37246,-0.007 -0.56664,-0.0141 -20.05831,-0.57194 -36.06189,-17.20395 -35.79357,-37.33817 0.13061,-9.84645 4.09004,-19.05213 11.14389,-25.91358 7.06092,-6.86676 16.36193,-10.57726 26.20838,-10.44664 0.19417,0 0.38658,0.007 0.57371,0.0141 9.63286,0.26831 18.60906,4.2136 25.34694,11.12978 6.86851,7.05385 10.5702,16.36191 10.43957,26.20837 -0.13062,9.84823 -4.08827,19.05214 -11.14389,25.92065 -7.05386,6.86851 -16.36193,10.57021 -26.20839,10.43958 z m 48.00545,-33.24283 42.77861,0.22066 c 0.3248,6.18536 1.40688,11.94355 3.14563,16.52785 0.81378,2.1377 1.70345,3.83408 2.62667,5.21273 -6.26833,3.3098 -12.84559,10.75025 -17.72821,19.10156 -3.7723,6.46075 -6.55784,13.52873 -7.54283,19.68585 l -33.91185,-34.18722 c 6.20479,-7.55695 9.89412,-16.75557 10.63198,-26.56143 z m 69.4989,-114.92534 -9.74937,59.50063 c -1.11738,-2.7114 -2.46249,-5.46163 -4.00707,-8.17832 -5.19861,-9.11565 -12.41134,-17.17039 -19.11392,-20.04595 L 715.16174,254.428 c 5.27451,4.79967 11.52165,9.33631 18.02476,13.13509 10.72908,6.26127 21.81649,10.55784 31.2287,12.07418 2.44838,0.4007 4.74494,0.59311 6.86145,0.59311 1.79878,0 3.46869,-0.14474 5.0062,-0.42012 -0.2895,1.93822 -0.37246,4.08827 -0.2489,6.42721 z m -76.69045,-47.5112 26.82974,60.46622 c -2.40601,-1.87468 -5.01325,-3.6399 -7.72288,-5.21978 -9.80585,-5.72995 -21.00978,-9.19156 -28.27193,-7.48811 L 641.8976,246.60804 c 5.30981,0.82082 10.87382,1.26213 16.36193,1.29038 0.20829,0 0.42188,0 0.62842,0 12.19068,0 23.69292,-1.82702 32.45023,-5.15801 3.10328,-1.17917 5.7776,-2.52428 8.00532,-4.01414 z m -138.97131,92.04796 c -1.75817,2.30363 -3.41926,4.78554 -4.92323,7.35042 -3.93647,6.73613 -6.63374,13.72821 -7.59755,19.68586 -0.82084,5.07503 -0.22772,8.51017 0.8473,10.83322 v 0.007 c -1.19329,0.95146 -2.41307,2.30363 -3.57811,4.23302 l -37.47056,44.42203 c 1.10327,-6.09004 1.68932,-12.59139 1.72463,-18.99035 0.083,-16.97623 -3.67521,-34.7468 -10.93737,-43.42114 z m -8.48724,118.84946 c 1.11034,2.66903 2.42013,5.34335 3.88881,7.91529 5.57107,9.76527 13.45282,18.30898 20.53493,20.57024 l 24.45021,60.6798 c -4.79261,-4.09533 -10.2454,-7.9506 -15.89414,-11.25334 -10.72908,-6.26834 -21.81649,-10.55785 -31.22164,-12.07418 -4.31069,-0.70257 -8.11653,-0.76611 -11.35043,-0.2489 3.00619,-20.87208 6.76437,-46.70976 9.59226,-65.58891 z m 40.46792,46.65505 c 2.27714,1.73698 4.72376,3.37159 7.2551,4.84733 6.73612,3.93646 13.72114,6.63372 19.67879,7.59931 1.65578,0.26832 3.13858,0.38482 4.46957,0.38482 1.11562,0 2.09532,-0.10944 3.00618,-0.25419 l 50.41853,39.75122 c -5.46692,-0.88967 -11.34338,-1.37158 -17.38223,-1.40688 -12.44665,-0.0688 -24.17661,1.77229 -33.08573,5.158 -3.92234,1.48986 -7.15624,3.24802 -9.65933,5.21979 z m 43.73182,5.94353 c 0.007,-1.67521 8.04063,-6.43956 23.38225,-6.40603 6.73082,0.0353 13.25335,1.09622 17.89415,2.91617 4.48192,1.75994 5.41925,3.46868 5.41219,3.73169 -0.007,1.66109 -7.92941,6.40603 -23.00272,6.40603 -0.12356,0 -0.2489,0 -0.37246,0 -15.31514,-0.0759 -23.32047,-4.96559 -23.31341,-6.64786 z m 44.22786,-11.01858 c -4.59313,-1.80052 -10.37779,-2.9444 -16.59846,-3.32392 v -42.91629 c 9.83409,-0.95323 19.04507,-4.90381 26.5473,-11.4334 l 34.22959,34.50497 c -6.21361,0.88967 -13.39104,3.62048 -19.96299,7.3716 -6.77673,3.86056 -12.61081,8.57019 -16.41665,13.2463 -1.43513,1.7511 -2.45544,3.36452 -3.18624,4.84732 -1.26214,-0.80672 -2.77847,-1.57988 -4.61255,-2.29658 z M 799.11964,281.15537 c 6.63373,5.4122 13.41222,13.86588 19.08744,23.80942 5.67521,9.95061 9.50224,20.08657 10.78379,28.54732 1.0203,6.76436 0.19417,11.97708 -2.10945,13.29395 -2.30363,1.31686 -7.21979,-0.62666 -12.52254,-4.94441 -6.63374,-5.41219 -13.41223,-13.86589 -19.07862,-23.81649 -5.67521,-9.94354 -9.5093,-20.07951 -10.78556,-28.54731 -0.15181,-0.99912 -0.25419,-1.95765 -0.32303,-2.88262 l 1.57811,-9.64523 c 0.26302,-0.31773 0.53839,-0.58076 0.85437,-0.75905 0.47662,-0.27538 1.06973,-0.40776 1.75287,-0.40776 2.61255,0 6.56314,1.93116 10.76262,5.35218 z m -90.2739,-52.48208 c 0.93027,-1.5993 3.76524,-2.46073 7.69464,-2.46073 1.68933,0 3.58518,0.1571 5.61344,0.48897 8.45368,1.36452 18.54903,5.30275 28.43609,11.08035 21.41755,12.50842 31.14751,27.25163 28.43081,31.89949 -1.33804,2.2895 -6.56489,3.06091 -13.31513,1.97176 -8.4484,-1.37335 -18.54905,-5.30276 -28.43081,-11.08212 -21.4246,-12.51372 -31.14573,-27.24987 -28.42904,-31.89772 z m -91.11591,-2.28245 c 0.0124,-2.64784 4.15005,-5.93646 10.54195,-8.36366 7.86763,-2.985 18.34252,-4.62667 29.56761,-4.62667 0.19948,0 0.40072,0 0.60019,0 24.80325,0.13063 40.59325,8.03357 40.565,13.41047 -0.0124,2.6549 -4.15006,5.93823 -10.54196,8.36542 -7.99826,3.04679 -18.6532,4.70963 -30.16073,4.62667 -13.37692,-0.0688 -24.09893,-2.40601 -31.15985,-5.37866 l -9.35749,-7.72288 c -0.007,-0.10416 -0.0547,-0.20653 -0.0547,-0.31069 z m -75.09821,31.06454 c 5.4122,-6.63374 13.86588,-13.41222 23.80942,-19.08745 14.02476,-7.99825 26.38138,-11.23921 34.04249,-11.23921 4.10945,0 6.86851,0.93733 7.79878,2.56488 2.66197,4.68315 -7.21273,19.31515 -28.75384,31.60998 -9.9506,5.66639 -20.08657,9.50047 -28.55437,10.77674 -1.16506,0.18005 -2.26126,0.28243 -3.32394,0.34422 l -9.13683,-1.5587 c -0.34422,-0.26832 -0.63372,-0.56488 -0.82613,-0.89498 -1.31686,-2.30362 0.62666,-7.21979 4.94442,-12.51548 z m -54.45384,76.96583 c 1.36452,-8.4537 5.30275,-18.54729 11.08035,-28.43611 5.77231,-9.88883 12.63905,-18.27367 19.32751,-23.60996 4.20655,-3.35747 8.15184,-5.24097 10.76438,-5.24097 0.70432,0 1.31686,0.13769 1.80054,0.42189 h 0.007 c 2.28773,1.33628 3.06091,6.56313 1.97175,13.31514 -1.36629,8.44662 -5.30275,18.54727 -11.07505,28.43609 -9.15625,15.65937 -19.47226,25.03804 -26.18897,27.89948 l -0.985,0.38482 c -2.00706,0.70433 -3.64873,0.77317 -4.73081,0.14475 -2.28951,-1.34334 -3.06091,-6.56313 -1.97177,-13.31513 z m -13.29396,63.71423 c 0.12357,-24.78207 8.01238,-40.565 13.39105,-40.565 h 0.0124 c 5.38572,0.0265 13.12273,15.90119 12.9921,40.70268 -0.083,16.56316 -3.63461,29.06454 -7.58519,35.56765 l -3.42809,4.06178 c -0.82612,0.59842 -1.62577,0.94441 -2.37775,0.94441 h -0.0212 c -5.37865,-0.0283 -13.11565,-15.9012 -12.98327,-40.71152 z m 44.04781,115.80973 c -6.63374,-5.41396 -13.41222,-13.86766 -19.08744,-23.8112 -12.29483,-21.54817 -13.34162,-39.17223 -8.66728,-41.84127 4.68139,-2.66902 19.30809,7.2198 31.60116,28.76091 5.67521,9.94355 9.50223,20.0795 10.7785,28.54731 1.02736,6.7573 0.19947,11.97709 -2.10945,13.28689 -2.30363,1.31686 -7.21274,-0.61959 -12.51549,-4.94264 z m 90.28096,52.47325 c -2.71669,4.64785 -20.32663,3.41395 -41.75124,-9.10154 -21.41754,-12.50842 -31.14043,-27.25163 -28.42374,-31.89771 1.33804,-2.28951 6.55782,-3.06268 13.30807,-1.97353 8.45545,1.36629 18.54904,5.30275 28.43786,11.08212 21.41755,12.51548 31.14574,27.24987 28.42905,31.89066 z m 80.56689,10.65316 c -7.99825,3.0415 -18.67967,4.7167 -30.16073,4.62667 -24.81031,-0.13063 -40.60031,-8.0318 -40.57206,-13.41045 0.0124,-2.65491 4.15006,-5.93648 10.54196,-8.36543 7.86057,-2.99207 18.3425,-4.62667 29.56761,-4.62667 0.20123,0 0.4007,0 0.59312,0 11.45282,0.0635 22.14835,1.81465 30.12013,4.93735 2.06885,0.8067 3.88881,1.70344 5.4122,2.64078 l 3.5587,2.80671 c 0.95852,1.04856 1.48809,2.08299 1.4828,3.02738 -0.0141,2.65491 -4.15182,5.93647 -10.54373,8.36366 z m 12.59139,-19.0998 c -0.72374,-0.57899 -1.5181,-1.13856 -2.36541,-1.68226 l -50.91631,-40.13075 c 3.31687,0.50308 6.79261,0.78552 10.26834,0.8067 0.12357,0 0.24714,0 0.3707,0 9.94355,0 19.89416,-2.04237 25.79002,-6.01413 l 65.96845,7.94354 c -5.71582,2.06885 -11.51461,4.76611 -16.96917,7.87469 -10.79262,6.15889 -20.04596,13.61169 -26.07245,21.00448 -2.90204,3.56399 -4.93735,6.99914 -6.07417,10.19773 z m 49.23935,-1.24095 c -9.94355,5.67521 -20.08656,9.50224 -28.54731,10.78379 -6.76436,1.02031 -11.97709,0.19418 -13.29396,-2.10945 -1.30979,-2.31069 0.62843,-7.21979 4.95147,-12.51548 5.40514,-6.6408 13.85883,-13.41752 23.80944,-19.09274 14.0177,-8.00002 26.37431,-11.23393 34.03541,-11.23393 4.10946,0 6.86851,0.93204 7.7988,2.56665 2.66902,4.67433 -7.20568,19.30633 -28.75385,31.60116 z m 78.26326,-96.05326 c -1.36452,8.45368 -5.30275,18.54904 -11.07328,28.43609 -5.77937,9.88177 -12.64611,18.27367 -19.33458,23.60996 -5.34512,4.26833 -10.27541,6.15713 -12.5702,4.82086 -2.28951,-1.34511 -3.06268,-6.5649 -1.97353,-13.31514 1.36628,-8.44663 5.30275,-18.54905 11.08212,-28.43787 11.14213,-19.07155 24.05127,-28.87035 30.02304,-28.87035 0.7308,0 1.36453,0.14475 1.86762,0.44131 2.29656,1.34511 3.06797,6.56489 1.97881,13.31514 z"
       style="fill:#ecd846;fill-opacity:1;fill-rule:nonzero;stroke:none;stroke-width:0.176523" />
    <path
       id="path4"
       d="m 387.50491,300.87475 c 0,0.28421 0.0882,0.58077 0.24006,0.8279 0.29656,0.47661 0.81378,0.77318 1.35923,0.77318 l 8.38485,0.083 c 1.39983,0.0123 1.66814,1.99295 0.32303,2.38482 l -12.76261,3.64167 -2.19241,-4.10416 c -1.99295,-3.75641 -0.57195,-8.4325 3.20565,-10.43957 l 249.40768,-132.71535 16.96387,8.33543 -264.0132,129.75152 c -0.57899,0.28419 -0.91615,0.87555 -0.91615,1.4616 z M 788.17697,102.95532 c 5.01326,-2.66726 6.86852,-8.9709 4.03356,-13.927667 -2.75023,-4.799663 -8.99739,-6.303639 -13.88707,-3.703454 l -107.36134,57.135221 17.68585,9.40515 z M 937.91091,294.03625 545.64487,85.324199 c -4.88263,-2.600185 -11.13685,-1.103269 -13.88178,3.696392 -2.84025,4.97089 -0.99206,11.260409 4.0212,13.929439 l 399.76827,196.46312 c 0.85613,0.42188 1.16682,1.48279 0.66902,2.29656 -0.2895,0.47661 -0.80671,0.76612 -1.36452,0.77318 l -8.37779,0.0759 c -1.40689,0.0123 -1.6752,1.99824 -0.3248,2.38482 l 12.77144,3.64167 2.1783,-4.0971 c 2,-3.76347 0.57193,-8.44662 -3.1933,-10.45193 z"
       style="fill:#1d1b02;fill-opacity:1;fill-rule:nonzero;stroke:none;stroke-width:0.176523" />
    <path
       id="path5"
       d="m 241.23083,711.53274 v 10.73613 c 0.31067,11.03976 8.44839,19.94181 14.65317,27.34166 5.59932,6.66021 9.38573,11.3416 9.51636,16.47843 v 11.95768 c 0,2.56488 -1.04854,3.76523 -3.76523,3.76523 -2.57194,0 -3.79348,-1.20035 -3.79348,-3.76523 v -15.1351 h -16.61082 v 15.1351 c 0,14.19068 6.7926,20.39723 20.55611,20.39723 14.19069,0 20.24542,-6.66198 20.24542,-20.39723 v -12.10772 c -0.1518,-11.19157 -7.55165,-20.09363 -13.45281,-27.18985 -6.18537,-7.27452 -10.43428,-11.95591 -10.7379,-16.78382 v -10.43251 c 0,-2.56488 1.22154,-3.78466 3.79348,-3.78466 2.71669,0 3.76523,1.21978 3.76523,3.78466 v 10.58432 h 16.632 v -10.58432 c 0,-13.75644 -6.05473,-20.39548 -20.24542,-20.39548 -13.76351,0 -20.55611,6.17831 -20.55611,20.39548 z m 71.62953,-3.02738 -16.61082,72.5404 v 16.63907 h 33.24282 v -16.63907 h -16.632 l 16.632,-72.5404 v -16.632 h -33.24282 v 16.632 z m 45.19344,89.17947 h 16.63906 V 759.6088 l 15.8659,-67.73544 h -16.63201 l -7.55695,35.68414 -7.54989,-35.68414 h -16.632 l 15.86589,67.73544 z m 45.20049,0 h 20.54729 c 14.21894,0 20.25249,-6.6408 20.25249,-20.40431 v -64.98167 c 0,-13.76351 -6.03355,-20.42549 -20.25249,-20.42549 h -20.54729 z m 20.54729,-16.63907 h -3.93647 v -72.5404 h 3.93647 c 2.57194,0 3.64167,1.22155 3.64167,3.79349 v 64.98167 c 0,2.57194 -1.06973,3.76524 -3.64167,3.76524 z m 34.46436,-89.1724 v 105.81147 h 33.24283 V 781.04576 H 474.87676 V 750.8303 h 9.08036 v -16.632 h -9.08036 v -25.69294 h 16.63201 v -16.632 z m 47.46,0 v 105.81147 h 33.24283 v -16.63907 h -16.63201 v -89.1724 z m 47.44058,0 v 105.81147 h 16.632 v -28.72032 l 1.06972,-2.87555 8.01239,31.59587 h 18.13421 l -17.39635,-56.52269 17.39635,-49.28878 h -18.13421 l -9.08211,28.86505 v -28.86505 z m 80.72576,86.17328 c 0,2.56488 -1.06973,3.76523 -3.78642,3.76523 -2.57194,0 -3.76524,-1.20035 -3.76524,-3.76523 v -66.5139 c 0,-2.56488 1.1933,-3.78466 3.76524,-3.78466 2.71669,0 3.78642,1.21978 3.78642,3.78466 z m -3.63461,20.39723 c 14.21893,0 20.24543,-6.66198 20.24543,-20.39723 v -66.5139 c 0,-13.75644 -6.0265,-20.39548 -20.24543,-20.39548 -13.76351,0 -20.55434,6.17831 -20.55434,20.39548 v 66.5139 c 0,14.19068 6.79083,20.39723 20.55434,20.39723 z m 72.23677,-106.57051 v 105.81147 h 16.632 v -41.1034 l 10.57727,41.1034 H 743.3154 V 691.87336 h -16.63907 v 41.12458 l -10.57726,-41.12458 z m 55.01165,105.81147 h 16.63179 V 691.87371 h -16.63179 z m 30.85093,-105.81147 v 105.81147 h 33.24283 v -16.63907 h -16.632 V 750.8303 h 9.08035 v -16.632 h -9.08035 v -25.69294 h 16.632 v -16.632 z m 85.23417,105.81147 h 16.63201 v -39.29758 h 3.91528 c 14.21893,0 20.24543,-6.64079 20.24543,-20.40253 v -25.68587 c 0,-13.76351 -6.0265,-20.42549 -20.24543,-20.42549 h -20.54729 z m 24.18896,-59.70011 c 0,2.57194 -1.06973,3.76347 -3.64167,3.76347 h -3.91528 v -33.24283 h 3.91528 c 2.57194,0 3.64167,1.22155 3.64167,3.79349 z m 42.16607,59.70011 h 16.61082 V 759.6088 l 15.87295,-67.73544 h -16.61082 l -7.57814,35.68414 -7.55695,-35.68414 h -16.60552 l 15.86766,67.73544 z m 85.99848,-105.81147 h -40.828 v 16.632 h 12.10949 v 89.17947 h 16.61081 v -89.17947 h 12.1077 z m 20.2455,0 -15.1069,105.81147 h 16.6038 l 1.3786,-10.58433 h 10.8809 l 1.3522,10.58433 h 16.632 l -15.1086,-105.81147 z m 4.8332,78.59513 3.4828,-28.10599 3.4616,28.10599 z"
       style="fill:#1d1b02;fill-opacity:1;fill-rule:nonzero;stroke:none;stroke-width:0.176523" />
    <path
       id="path6"
       d="m 267.46921,879.47855 c 8.70083,0 14.61788,3.46163 17.75469,10.39721 l -2.99912,2.27008 c -1.37864,-3.32392 -3.30981,-5.71757 -5.79878,-7.17919 -2.49604,-1.47573 -5.57107,-2.2136 -9.23392,-2.2136 -4.22597,0 -7.45281,0.93911 -9.69465,2.79966 -2.22066,1.8835 -3.331,4.1783 -3.331,6.89676 0,2.17123 0.69727,3.9647 2.09004,5.39102 1.40689,1.421 4.03355,2.56488 7.88176,3.43513 l 9.1845,1.97882 c 4.55781,1.00618 7.79172,2.44662 9.68757,4.33012 1.89763,1.86055 2.84909,4.26833 2.84909,7.21979 0,2.55782 -0.73786,4.82614 -2.2136,6.79084 -1.47574,1.9647 -3.5234,3.51104 -6.15183,4.62667 -2.64785,1.12446 -5.72288,1.68227 -9.23215,1.68227 -5.04151,0 -9.25334,-1.01324 -12.64612,-3.02561 -3.39277,-2.02119 -5.72994,-4.80672 -7.02032,-8.37249 l 3.15799,-2.41307 c 0.97971,3.3716 2.93735,5.96472 5.8747,7.78468 2.91792,1.82877 6.51017,2.74493 10.78556,2.74493 3.98588,0 7.27451,-0.81378 9.86764,-2.44132 2.579,-1.64696 3.86761,-4.03355 3.86761,-7.17037 0,-1.95234 -0.71668,-3.61343 -2.13769,-4.98501 -1.42807,-1.38041 -3.89586,-2.44131 -7.40515,-3.20743 l -9.68757,-2.13769 c -4.51018,-0.99912 -7.72466,-2.48192 -9.63994,-4.44661 -1.93116,-1.97353 -2.9038,-4.4272 -2.9038,-7.37866 0,-2.40601 0.69726,-4.61961 2.09003,-6.6408 1.37158,-2.01943 3.32923,-3.64698 5.87469,-4.88087 2.52252,-1.24096 5.57107,-1.85526 9.12977,-1.85526 z m 39.39996,44.43439 h 32.12543 v 3.27451 h -36.32492 v -3.1227 l 30.98157,-40.59324 H 303.3034 v -3.28334 h 34.54733 v 3.13153 z m 78.53864,-43.72477 h 4.19948 l -16.65847,28.69206 v 18.30722 h -3.56577 V 908.88023 L 352.7228,880.18817 h 4.19948 l 9.18627,16.10068 5.06091,8.90206 5.06092,-8.90206 z m 22.51375,0 h 14.80499 c 7.50929,0 13.2869,1.98589 17.34163,5.9506 4.06885,3.96471 6.1024,9.70171 6.1024,17.19688 0,7.72994 -2.03355,13.63994 -6.1024,17.72821 -4.05473,4.08298 -9.83234,6.12359 -17.34163,6.12359 h -14.80499 z m 3.55871,43.72477 h 11.5499 c 6.25421,0 11.05918,-1.78641 14.4184,-5.34512 3.34336,-3.55694 5.0115,-8.63903 5.0115,-15.23217 0,-6.36366 -1.66814,-11.25865 -5.0115,-14.70084 -3.35922,-3.4475 -8.16419,-5.1633 -14.4184,-5.1633 h -11.5499 z m 89.73727,3.27451 h -33.27107 v -46.99928 h 32.12543 v 3.28334 h -28.56672 v 18.15539 h 22.58789 v 3.33628 h -22.58789 v 18.94976 h 29.71236 z m 23.85003,-46.99928 v 43.72477 h 28.21015 v 3.27451 h -31.76709 v -46.99928 z m 47.15814,0 h 3.56576 v 26.34784 l 25.76002,-26.34784 h 4.70963 l -18.5967,19.02566 19.10155,27.97362 h -4.34422 l -17.24631,-25.35402 -9.38397,9.53578 v 15.81824 h -3.56576 z m 72.05672,-0.70962 c 4.4272,0 8.26127,0.97971 11.49518,2.94441 3.25508,1.97176 5.76524,4.75729 7.53047,8.37073 1.74406,3.61342 2.61961,7.90823 2.61961,12.895 0,4.98501 -0.87555,9.28688 -2.61961,12.89325 -1.76523,3.61343 -4.27539,6.40602 -7.53047,8.37249 -3.23391,1.9647 -7.06798,2.9497 -11.49518,2.9497 -4.40602,0 -8.2401,-0.985 -11.49342,-2.9497 -3.25508,-1.96647 -5.75818,-4.75906 -7.50223,-8.37249 -1.76524,-3.60637 -2.64785,-7.90824 -2.64785,-12.89325 0,-4.98677 0.88261,-9.28158 2.64785,-12.895 1.74405,-3.61344 4.24715,-6.39897 7.50223,-8.37073 3.25332,-1.9647 7.0874,-2.94441 11.49342,-2.94441 z m 0,3.2745 c -3.64697,0 -6.81909,0.84202 -9.5146,2.52428 -2.67608,1.69639 -4.73787,4.1024 -6.17831,7.2198 -1.45454,3.13682 -2.18535,6.86675 -2.18535,11.19156 0,4.32305 0.73081,8.05298 2.18535,11.19157 1.44044,3.12269 3.50223,5.5287 6.17831,7.22509 2.69551,1.67697 5.86763,2.51722 9.5146,2.51722 3.66285,0 6.83497,-0.84025 9.51636,-2.51722 2.67608,-1.69639 4.75024,-4.1024 6.22596,-7.22509 1.47574,-3.13859 2.2136,-6.86852 2.2136,-11.19157 0,-4.32481 -0.73786,-8.05474 -2.2136,-11.19156 -1.47572,-3.1174 -3.54988,-5.52341 -6.22596,-7.2198 -2.68139,-1.68226 -5.85351,-2.52428 -9.51636,-2.52428 z m 75.71957,-2.56488 h 17.44577 c 4.64786,0 8.37072,1.18624 11.17039,3.55871 2.79259,2.37776 4.19241,5.63285 4.19241,9.77055 0,3.45456 -1.00618,6.28775 -3.02736,8.49429 -2.01413,2.20125 -4.75024,3.62049 -8.21185,4.24891 l 13.73525,20.92682 h -4.19948 L 737.5025,906.61191 h -0.13063 l -0.35128,0.20653 H 723.5607 v 20.36901 h -3.5587 z m 3.5587,23.29929 h 13.81117 c 3.79877,0 6.70964,-0.86143 8.72906,-2.57194 2.01413,-1.70875 3.02738,-4.17831 3.02738,-7.39809 0,-3.24096 -1.01325,-5.72287 -3.02738,-7.45456 -2.01942,-1.72993 -4.93029,-2.59136 -8.72906,-2.59136 H 723.5607 Z m 70.63572,-24.00891 c 4.42718,0 8.25421,0.97971 11.49517,2.94441 3.25509,1.97176 5.76525,4.75729 7.53048,8.37073 1.74404,3.61342 2.6196,7.90823 2.6196,12.895 0,4.98501 -0.87556,9.28688 -2.6196,12.89325 -1.76523,3.61343 -4.27539,6.40602 -7.53048,8.37249 -3.24096,1.9647 -7.06799,2.9497 -11.49517,2.9497 -4.41308,0 -8.24011,-0.985 -11.50049,-2.9497 -3.25509,-1.96647 -5.75111,-4.75906 -7.50223,-8.37249 -1.75817,-3.60637 -2.64078,-7.90824 -2.64078,-12.89325 0,-4.98677 0.88261,-9.28158 2.64078,-12.895 1.75112,-3.61344 4.24714,-6.39897 7.50223,-8.37073 3.26038,-1.9647 7.08741,-2.94441 11.50049,-2.94441 z m 0,3.2745 c -3.64698,0 -6.81909,0.84202 -9.5146,2.52428 -2.67609,1.69639 -4.73788,4.1024 -6.17831,7.2198 -1.46161,3.13682 -2.18712,6.86675 -2.18712,11.19156 0,4.32305 0.72551,8.05298 2.18712,11.19157 1.44043,3.12269 3.50222,5.5287 6.17831,7.22509 2.69551,1.67697 5.86762,2.51722 9.5146,2.51722 3.66108,0 6.8332,-0.84025 9.50929,-2.51722 2.68138,-1.69639 4.75729,-4.1024 6.23303,-7.22509 1.47573,-3.13859 2.2136,-6.86852 2.2136,-11.19157 0,-4.32481 -0.73787,-8.05474 -2.2136,-11.19156 -1.47574,-3.1174 -3.55165,-5.52341 -6.23303,-7.2198 -2.67609,-1.68226 -5.84821,-2.52428 -9.50929,-2.52428 z m 43.30993,41.15989 h 32.09895 v 3.27451 h -36.31786 v -3.1227 l 30.98157,-40.59324 H 833.9494 v -3.28334 h 34.53851 v 3.13153 z m 83.96673,-43.72477 h 3.55693 v 29.8377 c 0,5.84644 -1.57811,10.28776 -4.72904,13.32043 -3.17213,3.0415 -7.62051,4.55783 -13.3575,4.55783 -5.74407,0 -10.21187,-1.51633 -13.40341,-4.55783 -3.16505,-3.03267 -4.752,-7.47399 -4.752,-13.32043 v -29.8377 h 3.55871 v 29.11925 c 0,5.0415 1.22683,8.8544 3.68933,11.44752 2.47485,2.579 6.10946,3.86763 10.90737,3.86763 4.75199,0 8.35129,-1.28863 10.81203,-3.86763 2.47662,-2.59312 3.71758,-6.40602 3.71758,-11.44752 z m 65.64363,0 h 5.33806 v 46.99928 h -3.4069 v -35.04161 l 0.43425,-8.55077 h -0.0759 l -17.16863,43.59238 h -3.28332 L 951.8121,883.59507 h -0.0759 l 0.43425,8.55077 v 35.04161 h -3.43338 v -46.99928 h 5.33806 l 14.16951,35.60824 2.36541,7.19861 h 0.0759 l 2.26125,-7.12271 z m 30.14129,0 h 3.5574 v 46.99928 h -3.5574 z m 61.603,46.99928 h -33.271 v -46.99928 h 32.1272 v 3.28334 h -28.5685 v 18.15539 h 22.5896 v 3.33628 h -22.5896 v 18.94976 h 29.7123 z"
       style="fill:#333333;fill-opacity:1;fill-rule:nonzero;stroke:none;stroke-width:0.176523" />
  </g>
</svg>
