<?xml version="1.0" encoding="UTF-8" standalone="no"?>
<!-- Created with Inkscape (http://www.inkscape.org/) -->

<svg
   version="1.1"
   id="svg1"
   width="1048.7178"
   height="247.66071"
   viewBox="0 0 1048.7178 247.66071"
   sodipodi:docname="Print.svg"
   inkscape:export-filename="Print.eps.png"
   inkscape:export-xdpi="22.5"
   inkscape:export-ydpi="22.5"
   inkscape:version="1.4.2 (ebf0e94, 2025-05-08)"
   xmlns:inkscape="http://www.inkscape.org/namespaces/inkscape"
   xmlns:sodipodi="http://sodipodi.sourceforge.net/DTD/sodipodi-0.dtd"
   xmlns="http://www.w3.org/2000/svg"
   xmlns:svg="http://www.w3.org/2000/svg">
  <defs
     id="defs1" />
  <sodipodi:namedview
     id="namedview1"
     pagecolor="#505050"
     bordercolor="#eeeeee"
     borderopacity="1"
     inkscape:showpageshadow="0"
     inkscape:pageopacity="0"
     inkscape:pagecheckerboard="0"
     inkscape:deskcolor="#505050"
     inkscape:zoom="0.61028001"
     inkscape:cx="469.45664"
     inkscape:cy="445.69705"
     inkscape:window-width="1920"
     inkscape:window-height="1048"
     inkscape:window-x="0"
     inkscape:window-y="0"
     inkscape:window-maximized="1"
     inkscape:current-layer="g1"
     showgrid="false" />
  <g
     id="g1"
     inkscape:groupmode="layer"
     inkscape:label="1"
     transform="translate(-128.29767,-37.475197)">
    <path
       id="path5"
       d="m 128.29767,63.038896 v 13.4566 c 0.38939,13.8372 10.58919,24.995004 18.36625,34.270004 7.01817,8.3479 11.76405,14.2155 11.92778,20.654 v 14.9878 c 0,3.2148 -1.31424,4.7193 -4.71933,4.7193 -3.22366,0 -4.75474,-1.5045 -4.75474,-4.7193 V 127.437 h -20.81996 v 18.9703 c 0,17.7865 8.51383,25.5658 25.76498,25.5658 17.78658,0 25.37556,-8.3501 25.37556,-25.5658 v -15.1758 c -0.19027,-14.0275 -9.46522,-25.1853 -16.86172,-34.079704 -7.75273,-9.1179 -13.0783,-14.9855 -13.45886,-21.0368 v -13.0761 c 0,-3.2148 1.53108,-4.7437 4.75474,-4.7437 3.40509,0 4.71933,1.5289 4.71933,4.7437 v 13.2664 h 20.84651 v -13.2664 c 0,-17.2423 -7.58898,-25.5637 -25.37556,-25.5637 -17.25115,0 -25.76498,7.7439 -25.76498,25.5637 z m 89.78028,-3.7945 -20.81996,90.921904 v 20.8554 h 41.66647 v -20.8554 h -20.84651 l 20.84651,-90.921904 v -20.8465 h -41.66647 v 20.8465 z M 274.7233,171.0217 h 20.85536 v -47.7244 l 19.88628,-84.899404 h -20.84652 l -9.47187,44.7264 -9.46301,-44.7264 H 254.83703 L 274.7233,123.2973 Z m 56.65419,0 h 25.75392 c 17.82198,0 25.38442,-8.3235 25.38442,-25.5747 V 63.999096 c 0,-17.2511 -7.56244,-25.6012 -25.38442,-25.6012 h -25.75392 z m 25.75392,-20.8554 h -4.93396 V 59.244396 h 4.93396 c 3.22366,0 4.56446,1.5311 4.56446,4.7547 V 145.447 c 0,3.2237 -1.3408,4.7193 -4.56446,4.7193 z M 400.32896,38.397896 V 171.0217 h 41.66648 v -20.8554 h -20.84652 v -37.8719 h 11.3813 V 91.447796 h -11.3813 v -32.2034 h 20.84652 v -20.8465 z m 59.48625,0 V 171.0217 h 41.66648 V 150.1663 H 480.63517 V 38.397896 Z m 59.4619,0 V 171.0217 h 20.84651 v -35.998 l 1.34079,-3.6042 10.04268,39.6022 h 22.72937 l -21.80449,-70.8454 21.80449,-61.778404 h -22.72937 l -11.38347,36.1794 v -36.1794 z M 620.45863,146.4073 c 0,3.2148 -1.34089,4.7193 -4.74599,4.7193 -3.22362,0 -4.7193,-1.5045 -4.7193,-4.7193 V 63.038896 c 0,-3.2148 1.49568,-4.7437 4.7193,-4.7437 3.4051,0 4.74599,1.5289 4.74599,4.7437 z m -4.5556,25.5658 c 17.82193,0 25.37553,-8.3501 25.37553,-25.5658 V 63.038896 c 0,-17.2423 -7.5536,-25.5637 -25.37553,-25.5637 -17.25127,0 -25.76284,7.7439 -25.76284,25.5637 V 146.4073 c 0,17.7865 8.51157,25.5658 25.76284,25.5658 z M 706.44433,38.397896 V 171.0217 h 20.84651 v -51.5189 l 13.25756,51.5189 h 17.06088 V 38.397896 h -20.85541 v 51.5454 l -13.25744,-51.5454 z M 775.39587,171.0217 h 20.84625 V 38.398296 H 775.39587 Z M 814.06431,38.397896 V 171.0217 h 41.66644 v -20.8554 h -20.8465 V 112.2944 H 846.2656 V 91.447796 h -11.38135 v -32.2034 h 20.8465 v -20.8465 z M 920.89665,171.0217 h 20.84651 v -49.2555 h 4.90743 c 17.82193,0 25.37553,-8.3235 25.37553,-25.572504 v -32.1946 c 0,-17.2511 -7.5536,-25.6012 -25.37553,-25.6012 h -25.75394 z m 30.31831,-74.828004 c 0,3.2237 -1.34076,4.717204 -4.56437,4.717204 h -4.90743 V 59.244396 h 4.90743 c 3.22361,0 4.56437,1.5311 4.56437,4.7547 z m 52.85084,74.828004 h 20.82 v -47.7244 l 19.8952,-84.899404 h -20.82 l -9.4984,44.7264 -9.4719,-44.7264 H 984.17731 L 1004.0658,123.2973 Z M 1111.8562,38.397896 h -51.1737 v 20.8465 h 15.178 V 171.0217 h 20.8199 V 59.244396 h 15.1758 z m 25.3756,0 -18.9349,132.623804 h 20.8112 l 1.7279,-13.2664 h 13.6381 l 1.6948,13.2664 h 20.8465 l -18.937,-132.623804 z m 6.058,98.510904 4.3653,-35.228 4.3388,35.228 z"
       style="fill:#1d1b02;fill-opacity:1;fill-rule:nonzero;stroke:none;stroke-width:0.221253" />
    <path
       id="path6"
       d="m 159.57775,224.4394 c 10.9056,0 18.32201,4.3388 22.25368,13.0319 l -3.75909,2.8453 c -1.72798,-4.1662 -4.1485,-7.1664 -7.26817,-8.9984 -3.12853,-1.8497 -6.98277,-2.7745 -11.57378,-2.7745 -5.29682,0 -9.34133,1.1771 -12.15125,3.5091 -2.78337,2.3607 -4.17506,5.237 -4.17506,8.6443 0,2.7215 0.87395,4.9694 2.61965,6.7571 1.76339,1.7811 5.05564,3.2149 9.87898,4.3056 l 11.51183,2.4803 c 5.71274,1.2611 9.76612,3.0666 12.14237,5.4273 2.37849,2.332 3.57105,5.3499 3.57105,9.0493 0,3.206 -0.92484,6.0491 -2.77452,8.5116 -1.84969,2.4626 -4.41623,4.4007 -7.71069,5.7991 -3.31881,1.4094 -7.17305,2.1085 -11.57156,2.1085 -6.31901,0 -11.59811,-1.27 -15.85061,-3.7923 -4.25249,-2.5333 -7.1819,-6.0247 -8.79926,-10.494 l 3.95822,-3.0246 c 1.22797,4.226 3.68167,7.4762 7.36333,9.7573 3.65732,2.2922 8.15984,3.4405 13.5186,3.4405 4.99589,0 9.11785,-1.02 12.36808,-3.0599 3.23251,-2.0643 4.84765,-5.0557 4.84765,-8.9873 0,-2.4471 -0.89829,-4.5291 -2.67938,-6.2482 -1.78994,-1.7302 -4.88306,-3.06 -9.28159,-4.0202 l -12.14238,-2.6794 c -5.65305,-1.2523 -9.68207,-3.1108 -12.08268,-5.5734 -2.42051,-2.4736 -3.63961,-5.549 -3.63961,-9.2484 0,-3.0156 0.87394,-5.7902 2.61963,-8.3235 1.71914,-2.5312 4.17285,-4.5711 7.36333,-6.1177 3.16172,-1.5554 6.98276,-2.3254 11.44323,-2.3254 z m 49.38381,55.694 h 40.26594 v 4.1042 h -45.52957 v -3.9139 l 38.83223,-50.8795 h -38.03792 v -4.1153 h 43.30154 v 3.925 z m 98.44015,-54.8045 h 5.26361 l -20.87968,35.9625 v 22.9462 h -4.46933 v -22.9462 l -20.88192,-35.9625 h 5.26362 l 11.51405,20.1805 6.34333,11.1578 6.34335,-11.1578 z m 28.21868,0 h 18.55654 c 9.41212,0 16.65376,2.4891 21.73595,7.4584 5.09989,4.9694 7.64874,12.1601 7.64874,21.5546 0,9.6886 -2.54885,17.0962 -7.64874,22.2205 -5.08219,5.1176 -12.32383,7.6752 -21.73595,7.6752 h -18.55654 z m 4.46048,54.8045 h 14.47661 c 7.83901,0 13.86155,-2.2391 18.07199,-6.6996 4.19056,-4.4582 6.2814,-10.8281 6.2814,-19.0919 0,-7.9762 -2.09084,-14.1116 -6.2814,-18.426 -4.21044,-4.3211 -10.23298,-6.4717 -18.07199,-6.4717 h -14.47661 z m 112.47647,4.1042 h -41.70188 v -58.9087 h 40.26594 v 4.1153 h -35.80546 v 22.7559 h 28.31161 v 4.1817 h -28.31161 v 23.7516 h 37.2414 z m 29.89357,-58.9087 v 54.8045 h 35.35854 v 4.1042 h -39.8168 v -58.9087 z m 59.1079,0 h 4.46932 v 33.0243 l 32.28751,-33.0243 h 5.90312 l -23.30905,23.8467 23.94177,35.062 h -5.44501 L 557.79,252.459 546.02813,264.4111 v 19.8265 h -4.46932 z m 90.31576,-0.8895 c 5.54904,0 10.35457,1.228 14.40793,3.6905 4.07994,2.4714 7.22621,5.9628 9.43871,10.4919 2.18605,4.529 3.2834,9.9122 3.2834,16.1626 0,6.2482 -1.09735,11.6401 -3.2834,16.1603 -2.2125,4.5291 -5.35877,8.0293 -9.43871,10.4941 -4.05336,2.4625 -8.85889,3.6971 -14.40793,3.6971 -5.52259,0 -10.32812,-1.2346 -14.40592,-3.6971 -4.07981,-2.4648 -7.21719,-5.965 -9.40324,-10.4941 -2.2125,-4.5202 -3.31875,-9.9121 -3.31875,-16.1603 0,-6.2504 1.10625,-11.6336 3.31875,-16.1626 2.18605,-4.5291 5.32343,-8.0205 9.40324,-10.4919 4.0778,-2.4625 8.88333,-3.6905 14.40592,-3.6905 z m 0,4.1043 c -4.57114,0 -8.54704,1.0554 -11.92558,3.1639 -3.35421,2.1263 -5.93847,5.1419 -7.74386,9.0493 -1.82319,3.9317 -2.73918,8.6068 -2.73918,14.0275 0,5.4185 0.91599,10.0935 2.73918,14.0274 1.80539,3.914 4.38965,6.9297 7.74386,9.056 3.37854,2.1019 7.35444,3.155 11.92558,3.155 4.59095,0 8.56685,-1.0531 11.92771,-3.155 3.35422,-2.1263 5.95401,-5.142 7.80365,-9.056 1.84964,-3.9339 2.77452,-8.6089 2.77452,-14.0274 0,-5.4207 -0.92488,-10.0958 -2.77452,-14.0275 -1.84964,-3.9074 -4.44943,-6.923 -7.80365,-9.0493 -3.36086,-2.1085 -7.33676,-3.1639 -11.92771,-3.1639 z m 94.90664,-3.2148 h 21.86652 c 5.82567,0 10.49182,1.4868 14.00096,4.4604 3.50023,2.9803 5.25474,7.0602 5.25474,12.2464 0,4.33 -1.26117,7.8811 -3.79454,10.6467 -2.52446,2.7591 -5.95388,4.538 -10.29265,5.3256 l 17.21567,26.2296 h -5.26352 l -17.0521,-25.7893 h -0.16369 l -0.44032,0.2589 h -16.8706 v 25.5304 h -4.46047 z m 4.46047,29.2032 h 17.31092 c 4.76141,0 8.4098,-1.0797 10.94103,-3.2236 2.52447,-2.1418 3.79441,-5.2371 3.79441,-9.2728 0,-4.0622 -1.26994,-7.173 -3.79441,-9.3435 -2.53123,-2.1683 -6.17962,-3.248 -10.94103,-3.248 h -17.31092 z m 88.53474,-30.0927 c 5.54891,0 10.34579,1.228 14.40793,3.6905 4.07993,2.4714 7.22621,5.9628 9.43871,10.4919 2.18592,4.529 3.2834,9.9122 3.2834,16.1626 0,6.2482 -1.09748,11.6401 -3.2834,16.1603 -2.2125,4.5291 -5.35878,8.0293 -9.43871,10.4941 -4.06214,2.4625 -8.85902,3.6971 -14.40793,3.6971 -5.53137,0 -10.32825,-1.2346 -14.4147,-3.6971 -4.07994,-2.4648 -7.20842,-5.965 -9.40337,-10.4941 -2.20359,-4.5202 -3.30984,-9.9121 -3.30984,-16.1603 0,-6.2504 1.10625,-11.6336 3.30984,-16.1626 2.19495,-4.5291 5.32343,-8.0205 9.40337,-10.4919 4.08645,-2.4625 8.88333,-3.6905 14.4147,-3.6905 z m 0,4.1043 c -4.57114,0 -8.54705,1.0554 -11.92558,3.1639 -3.35422,2.1263 -5.93847,5.1419 -7.74399,9.0493 -1.83197,3.9317 -2.74131,8.6068 -2.74131,14.0275 0,5.4185 0.90934,10.0935 2.74131,14.0274 1.80552,3.914 4.38977,6.9297 7.74399,9.056 3.37853,2.1019 7.35444,3.155 11.92558,3.155 4.58869,0 8.56471,-1.0531 11.91881,-3.155 3.36086,-2.1263 5.96278,-5.142 7.81255,-9.056 1.84964,-3.9339 2.77452,-8.6089 2.77452,-14.0274 0,-5.4207 -0.92488,-10.0958 -2.77452,-14.0275 -1.84977,-3.9074 -4.45169,-6.923 -7.81255,-9.0493 -3.3541,-2.1085 -7.33012,-3.1639 -11.91881,-3.1639 z m 54.28452,51.5897 h 40.23269 v 4.1042 h -45.52065 v -3.9139 l 38.83214,-50.8795 h -38.00251 v -4.1153 h 43.29047 v 3.925 z M 979.3046,225.3289 h 4.45821 v 37.3985 c 0,7.3279 -1.97798,12.8946 -5.92731,16.6958 -3.97591,3.8122 -9.55152,5.7127 -16.74226,5.7127 -7.19964,0 -12.79957,-1.9005 -16.79979,-5.7127 -3.96713,-3.8012 -5.95615,-9.3679 -5.95615,-16.6958 v -37.3985 h 4.46047 v 36.498 c 0,6.319 1.53767,11.098 4.62416,14.3483 3.10203,3.2325 7.65763,4.8476 13.67131,4.8476 5.95614,0 10.4675,-1.6151 13.55173,-4.8476 3.10429,-3.2503 4.65963,-8.0293 4.65963,-14.3483 z m 82.2776,0 h 6.6907 v 58.9087 h -4.2702 v -43.921 l 0.5444,-10.7175 h -0.095 l -21.5192,54.6385 h -4.1153 l -21.486,-54.6385 h -0.095 l 0.5443,10.7175 v 43.921 h -4.3034 v -58.9087 h 6.6908 l 17.76,44.6312 2.9648,9.0228 h 0.095 l 2.8342,-8.9276 z m 37.779,0 h 4.4588 v 58.9087 h -4.4588 z m 77.213,58.9087 h -41.7018 v -58.9087 h 40.2682 v 4.1153 h -35.8077 v 22.7559 h 28.3138 v 4.1817 h -28.3138 v 23.7516 h 37.2413 z"
       style="fill:#333333;fill-opacity:1;fill-rule:nonzero;stroke:none;stroke-width:0.221253" />
  </g>
</svg>
